<svg width="1208" height="689" viewBox="0 0 1208 689" fill="none" xmlns="http://www.w3.org/2000/svg">
<g filter="url(#filter0_d)">
<path d="M4 0H1204V681H4V0Z" fill="black"/>
<path fill-rule="evenodd" clip-rule="evenodd" d="M519.413 132.249C456.466 174.464 441.699 258.288 486.429 319.473C531.159 380.659 618.448 396.037 681.394 353.821L1194.6 9.63322C1197.86 7.44468 1201 5.14432 1204 2.74109V0H716.604L519.413 132.249Z" fill="#DC0E6A" fill-opacity="0.85"/>
<path d="M666.093 216.736C666.672 217.522 667.349 217.781 668.123 217.514C668.907 217.178 670.104 216.416 671.715 215.227C674.269 213.343 676.207 211.487 677.53 209.662C678.824 207.797 679.569 206.792 679.765 206.647C680.119 206.386 680.53 206.326 680.997 206.466C681.475 206.538 681.859 206.771 682.149 207.163C683.338 208.774 682.896 211.588 680.824 215.606C678.751 219.623 676.517 222.516 674.12 224.284C673.531 224.719 673.225 225.127 673.202 225.507C673.151 225.849 673.314 226.275 673.69 226.786L686.606 244.289C688.23 246.489 689.749 247.644 691.165 247.752C692.551 247.822 693.926 247.383 695.291 246.437C698.815 244.14 701.258 243.915 702.621 245.761C703.781 247.333 702.966 249.148 700.176 251.206C699.43 251.757 698.022 252.523 695.954 253.503C693.925 254.454 691.477 255.987 688.608 258.104C686.526 259.64 684.476 261.426 682.458 263.461C680.44 265.497 679.176 266.703 678.665 267.08C677.094 268.239 675.839 268.801 674.902 268.764C673.994 268.767 673.192 268.297 672.496 267.354C672.061 266.764 671.915 266.114 672.057 265.402C672.239 264.661 673.337 263.395 675.353 261.604C677.34 259.774 678.338 258.249 678.348 257.028C678.368 255.739 677.595 254.034 676.029 251.912L662.678 233.819C661.954 232.837 661.229 232.431 660.505 232.601C654.37 234.155 647.059 238.063 638.572 244.326C635.587 246.529 633.157 249.323 631.285 252.707C629.413 256.091 628.183 258 627.593 258.435C627.161 258.754 626.638 258.867 626.023 258.774C625.38 258.642 624.826 258.262 624.362 257.633C623.927 257.044 623.746 255.812 623.82 253.938L626.255 172.494C626.264 170.121 626.818 168.529 627.918 167.717C628.468 167.311 629.128 167.219 629.898 167.439C630.678 167.592 631.358 168.061 631.938 168.847C632.344 169.397 632.873 170.402 633.526 171.862C634.218 173.293 634.926 174.5 635.651 175.482L666.093 216.736ZM653.528 221.912L635.176 197.042C634.132 195.627 633.453 195.036 633.139 195.268C632.863 195.471 632.689 196.51 632.616 198.384L631.242 239.449L631.612 240.814L632.484 239.898C635.256 236.336 638.685 233.047 642.771 230.032C645.717 227.857 648.132 226.318 650.014 225.415C651.896 224.512 652.935 223.987 653.132 223.843C653.917 223.263 654.049 222.619 653.528 221.912ZM677.844 131.422C682.206 128.204 687.989 126.667 695.195 126.81C702.412 126.886 709.961 129.386 717.843 134.311C725.735 139.168 733.319 146.527 740.596 156.388C750.222 169.432 755.046 182.014 755.069 194.134C755.102 206.185 750.993 215.255 742.743 221.343C737.989 224.851 732.08 226.754 725.017 227.05C717.954 227.347 710.529 225.18 702.743 220.549C694.995 215.889 687.295 208.373 679.641 198C670.682 185.86 665.833 173.449 665.091 160.767C664.321 148.046 668.572 138.264 677.844 131.422ZM738.304 215.698C743.726 211.697 745.335 205.079 743.131 195.843C740.967 186.578 735.087 175.443 725.49 162.438C717.141 151.123 709.003 143.261 701.078 138.854C693.193 134.417 686.794 134.011 681.883 137.635C676.736 141.433 675.558 148.553 678.348 158.995C681.109 169.397 686.649 180.237 694.97 191.513C702.392 201.571 710.181 209.083 718.336 214.049C726.501 218.946 733.157 219.496 738.304 215.698ZM793.947 122.39C794.527 123.176 795.204 123.435 795.977 123.168C796.761 122.832 797.959 122.07 799.57 120.881C802.123 118.997 804.062 117.142 805.385 115.316C806.678 113.451 807.424 112.446 807.62 112.301C807.974 112.04 808.384 111.98 808.852 112.12C809.33 112.192 809.714 112.425 810.004 112.818C811.192 114.428 810.751 117.242 808.678 121.26C806.606 125.277 804.371 128.17 801.975 129.938C801.385 130.373 801.08 130.781 801.057 131.162C801.006 131.503 801.168 131.929 801.545 132.44L814.461 149.943C816.085 152.143 817.604 153.298 819.019 153.406C820.406 153.476 821.781 153.037 823.146 152.091C826.67 149.794 829.113 149.569 830.476 151.415C831.635 152.987 830.82 154.802 828.031 156.86C827.284 157.411 825.877 158.177 823.809 159.157C821.78 160.108 819.331 161.642 816.463 163.758C814.381 165.295 812.331 167.08 810.313 169.116C808.295 171.151 807.031 172.357 806.52 172.734C804.948 173.893 803.694 174.455 802.757 174.418C801.848 174.421 801.046 173.951 800.351 173.008C799.916 172.419 799.769 171.768 799.912 171.056C800.093 170.315 801.192 169.05 803.208 167.259C805.195 165.428 806.193 163.903 806.203 162.682C806.222 161.393 805.45 159.688 803.884 157.566L790.533 139.474C789.808 138.491 789.084 138.085 788.36 138.255C782.225 139.809 774.914 143.717 766.427 149.98C763.441 152.183 761.012 154.977 759.14 158.361C757.268 161.745 756.037 163.654 755.448 164.089C755.016 164.408 754.492 164.521 753.878 164.428C753.234 164.296 752.681 163.916 752.217 163.288C751.782 162.698 751.601 161.466 751.674 159.592L754.11 78.1483C754.118 75.7752 754.673 74.1828 755.773 73.371C756.323 72.9652 756.983 72.8726 757.753 73.0935C758.533 73.246 759.213 73.7152 759.792 74.501C760.198 75.051 760.728 76.0562 761.38 77.5164C762.072 78.9476 762.781 80.1543 763.506 81.1365L793.947 122.39ZM781.382 127.566L763.03 102.696C761.987 101.282 761.308 100.69 760.993 100.922C760.718 101.125 760.544 102.164 760.471 104.038L759.097 145.103L759.467 146.468L760.338 145.552C763.11 141.99 766.539 138.701 770.625 135.686C773.572 133.511 775.986 131.972 777.869 131.069C779.751 130.166 780.79 129.642 780.986 129.497C781.772 128.917 781.904 128.273 781.382 127.566Z" fill="white"/>
<circle cx="26.5" cy="655.5" r="15.5" fill="#EE076E" fill-opacity="0.11"/>
<circle cx="26.5" cy="606.5" r="15.5" fill="#EE076E" fill-opacity="0.32"/>
<circle cx="26.5" cy="557.5" r="15.5" fill="#EE076E" fill-opacity="0.17"/>
<circle cx="23.5" cy="505.5" r="12.5" fill="#EE076E" fill-opacity="0.2"/>
<circle cx="26.5" cy="458.5" r="10.5" fill="#EE076E" fill-opacity="0.46"/>
<circle cx="75.5" cy="655.5" r="15.5" fill="#EE076E" fill-opacity="0.32"/>
<circle cx="75.5" cy="606.5" r="15.5" fill="#EE076E" fill-opacity="0.17"/>
<circle cx="72.5" cy="554.5" r="12.5" fill="#EE076E" fill-opacity="0.2"/>
<circle cx="87.5" cy="508.5" r="11.5" fill="#EE076E" fill-opacity="0.46"/>
<circle cx="124.5" cy="655.5" r="15.5" fill="#EE076E" fill-opacity="0.17"/>
<circle cx="121.5" cy="603.5" r="12.5" fill="#EE076E" fill-opacity="0.2"/>
<circle cx="136.5" cy="553.5" r="11.5" fill="#EE076E" fill-opacity="0.46"/>
<circle cx="170.5" cy="652.5" r="12.5" fill="#EE076E" fill-opacity="0.2"/>
<circle cx="181.5" cy="606.5" r="10.5" fill="#EE076E" fill-opacity="0.46"/>
<circle cx="222" cy="649" r="9" fill="#EE076E" fill-opacity="0.46"/>
<g opacity="0.32">
<ellipse rx="16.6977" ry="15.5" transform="matrix(-1 0 0 1 1156.3 640.5)" fill="#EE076E" fill-opacity="0.11"/>
<ellipse rx="16.6977" ry="15.5" transform="matrix(-1 0 0 1 1156.3 591.5)" fill="#EE076E" fill-opacity="0.32"/>
<ellipse rx="16.6977" ry="15.5" transform="matrix(-1 0 0 1 1156.3 542.5)" fill="#EE076E" fill-opacity="0.17"/>
<ellipse rx="13.4659" ry="12.5" transform="matrix(-1 0 0 1 1159.53 490.5)" fill="#EE076E" fill-opacity="0.2"/>
<ellipse rx="11.3114" ry="10.5" transform="matrix(-1 0 0 1 1156.3 443.5)" fill="#EE076E" fill-opacity="0.46"/>
<ellipse rx="16.6977" ry="15.5" transform="matrix(-1 0 0 1 1103.52 640.5)" fill="#EE076E" fill-opacity="0.32"/>
<ellipse rx="16.6977" ry="15.5" transform="matrix(-1 0 0 1 1103.52 591.5)" fill="#EE076E" fill-opacity="0.17"/>
<ellipse rx="13.4659" ry="12.5" transform="matrix(-1 0 0 1 1106.75 539.5)" fill="#EE076E" fill-opacity="0.2"/>
<ellipse rx="12.3886" ry="11.5" transform="matrix(-1 0 0 1 1090.59 493.5)" fill="#EE076E" fill-opacity="0.46"/>
<ellipse rx="16.6977" ry="15.5" transform="matrix(-1 0 0 1 1050.73 640.5)" fill="#EE076E" fill-opacity="0.17"/>
<ellipse rx="13.4659" ry="12.5" transform="matrix(-1 0 0 1 1053.96 588.5)" fill="#EE076E" fill-opacity="0.2"/>
<ellipse rx="12.3886" ry="11.5" transform="matrix(-1 0 0 1 1037.8 538.5)" fill="#EE076E" fill-opacity="0.46"/>
<ellipse rx="13.4659" ry="12.5" transform="matrix(-1 0 0 1 1001.18 637.5)" fill="#EE076E" fill-opacity="0.2"/>
<ellipse rx="11.3114" ry="10.5" transform="matrix(-1 0 0 1 989.325 591.5)" fill="#EE076E" fill-opacity="0.46"/>
<ellipse rx="9.69545" ry="9" transform="matrix(-1 0 0 1 945.696 634)" fill="#EE076E" fill-opacity="0.46"/>
</g>
</g>
<defs>
<filter id="filter0_d" x="0" y="0" width="1208" height="689" filterUnits="userSpaceOnUse" color-interpolation-filters="sRGB">
<feFlood flood-opacity="0" result="BackgroundImageFix"/>
<feColorMatrix in="SourceAlpha" type="matrix" values="0 0 0 0 0 0 0 0 0 0 0 0 0 0 0 0 0 0 127 0"/>
<feOffset dy="4"/>
<feGaussianBlur stdDeviation="2"/>
<feColorMatrix type="matrix" values="0 0 0 0 0 0 0 0 0 0 0 0 0 0 0 0 0 0 0.25 0"/>
<feBlend mode="normal" in2="BackgroundImageFix" result="effect1_dropShadow"/>
<feBlend mode="normal" in="SourceGraphic" in2="effect1_dropShadow" result="shape"/>
</filter>
</defs>
</svg>
