<svg width="237" height="223" viewBox="0 0 237 223" fill="none" xmlns="http://www.w3.org/2000/svg">
<g opacity="0.32">
<ellipse rx="16.6977" ry="15.5" transform="matrix(-1 0 0 1 220.302 207.5)" fill="#EE076E" fill-opacity="0.11"/>
<ellipse rx="16.6977" ry="15.5" transform="matrix(-1 0 0 1 220.302 158.5)" fill="#EE076E" fill-opacity="0.32"/>
<ellipse rx="16.6977" ry="15.5" transform="matrix(-1 0 0 1 220.302 109.5)" fill="#EE076E" fill-opacity="0.17"/>
<ellipse rx="13.4659" ry="12.5" transform="matrix(-1 0 0 1 223.534 57.5)" fill="#EE076E" fill-opacity="0.2"/>
<ellipse rx="11.3114" ry="10.5" transform="matrix(-1 0 0 1 220.302 10.5)" fill="#EE076E" fill-opacity="0.46"/>
<ellipse rx="16.6977" ry="15.5" transform="matrix(-1 0 0 1 167.516 207.5)" fill="#EE076E" fill-opacity="0.32"/>
<ellipse rx="16.6977" ry="15.5" transform="matrix(-1 0 0 1 167.516 158.5)" fill="#EE076E" fill-opacity="0.17"/>
<ellipse rx="13.4659" ry="12.5" transform="matrix(-1 0 0 1 170.748 106.5)" fill="#EE076E" fill-opacity="0.2"/>
<ellipse rx="12.3886" ry="11.5" transform="matrix(-1 0 0 1 154.588 60.5)" fill="#EE076E" fill-opacity="0.46"/>
<ellipse rx="16.6977" ry="15.5" transform="matrix(-1 0 0 1 114.73 207.5)" fill="#EE076E" fill-opacity="0.17"/>
<ellipse rx="13.4659" ry="12.5" transform="matrix(-1 0 0 1 117.961 155.5)" fill="#EE076E" fill-opacity="0.2"/>
<ellipse rx="12.3886" ry="11.5" transform="matrix(-1 0 0 1 101.802 105.5)" fill="#EE076E" fill-opacity="0.46"/>
<ellipse rx="13.4659" ry="12.5" transform="matrix(-1 0 0 1 65.1752 204.5)" fill="#EE076E" fill-opacity="0.2"/>
<ellipse rx="11.3114" ry="10.5" transform="matrix(-1 0 0 1 53.3249 158.5)" fill="#EE076E" fill-opacity="0.46"/>
<ellipse rx="9.69545" ry="9" transform="matrix(-1 0 0 1 9.69566 201)" fill="#EE076E" fill-opacity="0.46"/>
</g>
</svg>
