<svg width="54" height="54" viewBox="0 0 54 54" fill="none" xmlns="http://www.w3.org/2000/svg">
<path d="M38.2495 47.25V42.75C38.2495 40.3631 37.3012 38.0739 35.6134 36.386C33.9256 34.6982 31.6364 33.75 29.2495 33.75H11.2495C8.8625 33.75 6.57332 34.6982 4.88549 36.386C3.19766 38.0739 2.24945 40.3631 2.24945 42.75V47.25" stroke="#EE076E" stroke-linecap="round" stroke-linejoin="round"/>
<path d="M20.2506 24.75C25.2211 24.75 29.2506 20.7206 29.2506 15.75C29.2506 10.7794 25.2211 6.75 20.2506 6.75C15.28 6.75 11.2505 10.7794 11.2505 15.75C11.2505 20.7206 15.28 24.75 20.2506 24.75Z" stroke="#EE076E" stroke-linecap="round" stroke-linejoin="round"/>
<path d="M51.7505 47.2475V42.7475C51.7491 40.7534 51.0853 38.8163 49.8636 37.2402C48.6419 35.6642 46.9313 34.5386 45.0005 34.04" stroke="#EE076E" stroke-linecap="round" stroke-linejoin="round"/>
<path d="M35.9995 7.04004C37.9354 7.53572 39.6513 8.66162 40.8766 10.2402C42.102 11.8189 42.7671 13.7604 42.7671 15.7588C42.7671 17.7572 42.102 19.6987 40.8766 21.2773C39.6513 22.856 37.9354 23.9819 35.9995 24.4775" stroke="#EE076E" stroke-linecap="round" stroke-linejoin="round"/>
</svg>
