<svg width="140" height="20" viewBox="0 0 155 27" fill="none" xmlns="http://www.w3.org/2000/svg">
      <path d="M0.78 0.799998H4.38V26H0.78V0.799998ZM33.5965 0.799998V26H30.6445L15.5245 7.208V26H11.9245V0.799998H14.8765L29.9965 19.592V0.799998H33.5965ZM62.7813 0.799998L51.7293 26H48.1653L37.0773 0.799998H40.9653L50.0373 21.5L59.1813 0.799998H62.7813ZM84.2828 22.868V26H65.9948V0.799998H83.7788V3.932H69.5948V11.672H82.2308V14.732H69.5948V22.868H84.2828ZM97.456 26.288C95.56 26.288 93.724 26 91.948 25.424C90.196 24.824 88.816 24.056 87.808 23.12L89.14 20.312C90.1 21.176 91.324 21.884 92.812 22.436C94.324 22.964 95.872 23.228 97.456 23.228C99.544 23.228 101.104 22.88 102.136 22.184C103.168 21.464 103.684 20.516 103.684 19.34C103.684 18.476 103.396 17.78 102.82 17.252C102.268 16.7 101.572 16.28 100.732 15.992C99.916 15.704 98.752 15.38 97.24 15.02C95.344 14.564 93.808 14.108 92.632 13.652C91.48 13.196 90.484 12.5 89.644 11.564C88.828 10.604 88.42 9.32 88.42 7.712C88.42 6.368 88.768 5.156 89.464 4.076C90.184 2.996 91.264 2.132 92.704 1.484C94.144 0.835999 95.932 0.512 98.068 0.512C99.556 0.512 101.02 0.704 102.46 1.088C103.9 1.472 105.136 2.024 106.168 2.744L104.98 5.624C103.924 4.952 102.796 4.448 101.596 4.112C100.396 3.752 99.22 3.572 98.068 3.572C96.028 3.572 94.492 3.944 93.46 4.688C92.452 5.432 91.948 6.392 91.948 7.568C91.948 8.432 92.236 9.14 92.812 9.692C93.388 10.22 94.096 10.64 94.936 10.952C95.8 11.24 96.964 11.552 98.428 11.888C100.324 12.344 101.848 12.8 103 13.256C104.152 13.712 105.136 14.408 105.952 15.344C106.792 16.28 107.212 17.54 107.212 19.124C107.212 20.444 106.852 21.656 106.132 22.76C105.412 23.84 104.32 24.704 102.856 25.352C101.392 25.976 99.592 26.288 97.456 26.288ZM117.124 3.932H108.484V0.799998H129.328V3.932H120.688V26H117.124V3.932ZM148.039 19.7H134.647L131.875 26H128.167L139.579 0.799998H143.143L154.591 26H150.811L148.039 19.7ZM146.779 16.82L141.343 4.472L135.907 16.82H146.779Z" fill="#EE076E"/>
      <path d="M0.78 0.799998H4.38V26H0.78V0.799998ZM33.5965 0.799998V26H30.6445L15.5245 7.208V26H11.9245V0.799998H14.8765L29.9965 19.592V0.799998H33.5965ZM62.7813 0.799998L51.7293 26H48.1653L37.0773 0.799998H40.9653L50.0373 21.5L59.1813 0.799998H62.7813ZM84.2828 22.868V26H65.9948V0.799998H83.7788V3.932H69.5948V11.672H82.2308V14.732H69.5948V22.868H84.2828ZM97.456 26.288C95.56 26.288 93.724 26 91.948 25.424C90.196 24.824 88.816 24.056 87.808 23.12L89.14 20.312C90.1 21.176 91.324 21.884 92.812 22.436C94.324 22.964 95.872 23.228 97.456 23.228C99.544 23.228 101.104 22.88 102.136 22.184C103.168 21.464 103.684 20.516 103.684 19.34C103.684 18.476 103.396 17.78 102.82 17.252C102.268 16.7 101.572 16.28 100.732 15.992C99.916 15.704 98.752 15.38 97.24 15.02C95.344 14.564 93.808 14.108 92.632 13.652C91.48 13.196 90.484 12.5 89.644 11.564C88.828 10.604 88.42 9.32 88.42 7.712C88.42 6.368 88.768 5.156 89.464 4.076C90.184 2.996 91.264 2.132 92.704 1.484C94.144 0.835999 95.932 0.512 98.068 0.512C99.556 0.512 101.02 0.704 102.46 1.088C103.9 1.472 105.136 2.024 106.168 2.744L104.98 5.624C103.924 4.952 102.796 4.448 101.596 4.112C100.396 3.752 99.22 3.572 98.068 3.572C96.028 3.572 94.492 3.944 93.46 4.688C92.452 5.432 91.948 6.392 91.948 7.568C91.948 8.432 92.236 9.14 92.812 9.692C93.388 10.22 94.096 10.64 94.936 10.952C95.8 11.24 96.964 11.552 98.428 11.888C100.324 12.344 101.848 12.8 103 13.256C104.152 13.712 105.136 14.408 105.952 15.344C106.792 16.28 107.212 17.54 107.212 19.124C107.212 20.444 106.852 21.656 106.132 22.76C105.412 23.84 104.32 24.704 102.856 25.352C101.392 25.976 99.592 26.288 97.456 26.288ZM117.124 3.932H108.484V0.799998H129.328V3.932H120.688V26H117.124V3.932ZM148.039 19.7H134.647L131.875 26H128.167L139.579 0.799998H143.143L154.591 26H150.811L148.039 19.7ZM146.779 16.82L141.343 4.472L135.907 16.82H146.779Z" fill="url(#paint0_linear)"/>
      <defs>
      <linearGradient id="paint0_linear" x1="0.956044" y1="0.500014" x2="166.78" y2="0.500013" gradientUnits="userSpaceOnUse">
      <stop stop-color="#EE076E"/>
      <stop offset="1" stop-color="#F81F01"/>
      </linearGradient>
      </defs>
      </svg>
