<svg width="54" height="54" viewBox="0 0 54 54" fill="none" xmlns="http://www.w3.org/2000/svg">
<g clip-path="url(#clip0)">
<path d="M4.50055 17.9978V13.4978C4.50055 12.3043 4.97465 11.1597 5.81857 10.3158C6.66248 9.47191 7.80708 8.9978 9.00055 8.9978H45.0006C46.194 8.9978 47.3386 9.47191 48.1825 10.3158C49.0264 11.1597 49.5006 12.3043 49.5006 13.4978V40.4978C49.5006 41.6913 49.0264 42.8359 48.1825 43.6798C47.3386 44.5237 46.194 44.9978 45.0006 44.9978H31.5006M4.50055 36.2228C6.66256 36.6637 8.64717 37.7307 10.2074 39.2909C11.7676 40.8512 12.8346 42.8358 13.2756 44.9978L4.50055 36.2228ZM4.50055 27.1103C9.06983 27.6185 13.3302 29.6664 16.5811 32.9173C19.8319 36.1682 21.8799 40.4285 22.3881 44.9978L4.50055 27.1103Z" stroke="#EE076E" stroke-linecap="round" stroke-linejoin="round"/>
</g>
<defs>
<clipPath id="clip0">
<rect width="54" height="54" fill="white"/>
</clipPath>
</defs>
</svg>
