<svg width="744" height="378" viewBox="0 0 744 378" fill="none" xmlns="http://www.w3.org/2000/svg">
<path fill-rule="evenodd" clip-rule="evenodd" d="M59.4125 132.249C-3.53396 174.464 -18.3014 258.288 26.4286 319.473C71.1586 380.659 158.448 396.037 221.394 353.821L734.6 9.63322C737.863 7.44468 740.997 5.14432 744 2.74109V0H256.604L59.4125 132.249Z" fill="#DC0E6A" fill-opacity="0.45"/>
<path d="M206.093 216.736C206.672 217.522 207.349 217.781 208.123 217.514C208.907 217.178 210.104 216.416 211.715 215.227C214.269 213.343 216.207 211.487 217.53 209.662C218.824 207.797 219.569 206.792 219.765 206.647C220.119 206.386 220.53 206.326 220.997 206.466C221.475 206.538 221.859 206.771 222.149 207.163C223.338 208.774 222.896 211.588 220.824 215.606C218.751 219.623 216.517 222.516 214.12 224.284C213.531 224.719 213.225 225.127 213.202 225.507C213.151 225.849 213.314 226.275 213.69 226.786L226.606 244.289C228.23 246.489 229.749 247.644 231.165 247.752C232.551 247.822 233.926 247.383 235.291 246.437C238.815 244.14 241.258 243.915 242.621 245.761C243.781 247.333 242.966 249.148 240.176 251.206C239.43 251.757 238.022 252.523 235.954 253.503C233.925 254.454 231.477 255.987 228.608 258.104C226.526 259.64 224.476 261.426 222.458 263.461C220.44 265.497 219.176 266.703 218.665 267.08C217.094 268.239 215.839 268.801 214.902 268.764C213.994 268.767 213.192 268.297 212.496 267.354C212.061 266.764 211.915 266.114 212.057 265.402C212.239 264.661 213.337 263.395 215.353 261.604C217.34 259.774 218.338 258.249 218.348 257.028C218.368 255.739 217.595 254.034 216.029 251.912L202.678 233.819C201.954 232.837 201.229 232.431 200.505 232.601C194.37 234.155 187.059 238.063 178.572 244.326C175.587 246.529 173.157 249.323 171.285 252.707C169.413 256.091 168.183 258 167.593 258.435C167.161 258.754 166.638 258.867 166.023 258.774C165.38 258.642 164.826 258.262 164.362 257.633C163.927 257.044 163.746 255.812 163.82 253.938L166.255 172.494C166.264 170.121 166.818 168.529 167.918 167.717C168.468 167.311 169.128 167.219 169.898 167.439C170.678 167.592 171.358 168.061 171.938 168.847C172.344 169.397 172.873 170.402 173.526 171.862C174.218 173.293 174.926 174.5 175.651 175.482L206.093 216.736ZM193.528 221.912L175.176 197.042C174.132 195.627 173.453 195.036 173.139 195.268C172.863 195.471 172.689 196.51 172.616 198.384L171.242 239.449L171.612 240.814L172.484 239.898C175.256 236.336 178.685 233.047 182.771 230.032C185.717 227.857 188.132 226.318 190.014 225.415C191.896 224.512 192.935 223.987 193.132 223.843C193.917 223.263 194.049 222.619 193.528 221.912ZM217.844 131.422C222.206 128.204 227.989 126.667 235.195 126.81C242.412 126.886 249.961 129.386 257.843 134.311C265.735 139.168 273.319 146.527 280.596 156.388C290.222 169.432 295.046 182.014 295.069 194.134C295.102 206.185 290.993 215.255 282.743 221.343C277.989 224.851 272.08 226.754 265.017 227.05C257.954 227.347 250.529 225.18 242.743 220.549C234.995 215.889 227.295 208.373 219.641 198C210.682 185.86 205.833 173.449 205.091 160.767C204.321 148.046 208.572 138.264 217.844 131.422ZM278.304 215.698C283.726 211.697 285.335 205.079 283.131 195.843C280.967 186.578 275.087 175.443 265.49 162.438C257.141 151.123 249.003 143.261 241.078 138.854C233.193 134.417 226.794 134.011 221.883 137.635C216.736 141.433 215.558 148.553 218.348 158.995C221.109 169.397 226.649 180.237 234.97 191.513C242.392 201.571 250.181 209.083 258.336 214.049C266.501 218.946 273.157 219.496 278.304 215.698ZM333.947 122.39C334.527 123.176 335.204 123.435 335.977 123.168C336.761 122.832 337.959 122.07 339.57 120.881C342.123 118.997 344.062 117.142 345.385 115.316C346.678 113.451 347.424 112.446 347.62 112.301C347.974 112.04 348.384 111.98 348.852 112.12C349.33 112.192 349.714 112.425 350.004 112.818C351.192 114.428 350.751 117.242 348.678 121.26C346.606 125.277 344.371 128.17 341.975 129.938C341.385 130.373 341.08 130.781 341.057 131.162C341.006 131.503 341.168 131.929 341.545 132.44L354.461 149.943C356.085 152.143 357.604 153.298 359.019 153.406C360.406 153.476 361.781 153.037 363.146 152.091C366.67 149.794 369.113 149.569 370.476 151.415C371.635 152.987 370.82 154.802 368.031 156.86C367.284 157.411 365.877 158.177 363.809 159.157C361.78 160.108 359.331 161.642 356.463 163.758C354.381 165.295 352.331 167.08 350.313 169.116C348.295 171.151 347.031 172.357 346.52 172.734C344.948 173.893 343.694 174.455 342.757 174.418C341.848 174.421 341.046 173.951 340.351 173.008C339.916 172.419 339.769 171.768 339.912 171.056C340.093 170.315 341.192 169.05 343.208 167.259C345.195 165.428 346.193 163.903 346.203 162.682C346.222 161.393 345.45 159.688 343.884 157.566L330.533 139.474C329.808 138.491 329.084 138.085 328.36 138.255C322.225 139.809 314.914 143.717 306.427 149.98C303.441 152.183 301.012 154.977 299.14 158.361C297.268 161.745 296.037 163.654 295.448 164.089C295.016 164.408 294.492 164.521 293.878 164.428C293.234 164.296 292.681 163.916 292.217 163.288C291.782 162.698 291.601 161.466 291.674 159.592L294.11 78.1483C294.118 75.7752 294.673 74.1828 295.773 73.371C296.323 72.9652 296.983 72.8726 297.753 73.0935C298.533 73.246 299.213 73.7152 299.792 74.501C300.198 75.051 300.728 76.0562 301.38 77.5164C302.072 78.9476 302.781 80.1543 303.506 81.1365L333.947 122.39ZM321.382 127.566L303.03 102.696C301.987 101.282 301.308 100.69 300.993 100.922C300.718 101.125 300.544 102.164 300.471 104.038L299.097 145.103L299.467 146.468L300.338 145.552C303.11 141.99 306.539 138.701 310.625 135.686C313.572 133.511 315.986 131.972 317.869 131.069C319.751 130.166 320.79 129.642 320.986 129.497C321.772 128.917 321.904 128.273 321.382 127.566Z" fill="black"/>
</svg>
